<svg width="20" height="16" viewBox="0 0 20 16" fill="none" xmlns="http://www.w3.org/2000/svg">
<path d="M6.028 1.87801e-07C5.42463 -0.000222723 4.83793 0.197999 4.35833 0.564114C3.87873 0.930229 3.53285 1.44392 3.374 2.026L2.422 5.52C1.75432 5.60021 1.13917 5.92229 0.692879 6.42533C0.246588 6.92838 9.02858e-05 7.57752 0 8.25V10.5C0 11.365 0.4 12.136 1.023 12.64C1.11134 13.3758 1.44851 14.0594 1.97862 14.5773C2.50872 15.0952 3.19991 15.4164 3.93759 15.4876C4.67528 15.5588 5.41514 15.3757 6.03451 14.9687C6.65388 14.5618 7.11556 13.9553 7.343 13.25H12.157C12.3763 13.925 12.8103 14.5097 13.3929 14.9149C13.9756 15.3202 14.6748 15.5237 15.3839 15.4945C16.0929 15.4653 16.773 15.2049 17.3203 14.753C17.8676 14.3012 18.252 13.6827 18.415 12.992C18.8889 12.7704 19.2897 12.4182 19.5704 11.9768C19.8512 11.5354 20.0002 11.0231 20 10.5V8.812C20 8.19869 19.795 7.60298 19.4176 7.11956C19.0402 6.63614 18.512 6.29275 17.917 6.144L15.734 5.598L13.226 1.352C12.9829 0.940214 12.6366 0.598931 12.2214 0.361835C11.8061 0.124739 11.3362 2.48605e-05 10.858 1.87801e-07H6.028ZM4.822 2.421C4.89417 2.15646 5.05133 1.92299 5.26926 1.75656C5.48718 1.59013 5.75379 1.49998 6.028 1.5H7.5V5.5H3.982L4.822 2.421ZM9 5.5V1.5H10.858C11.301 1.5 11.71 1.734 11.935 2.114L13.935 5.5H9ZM4.25 10.5C4.71413 10.5 5.15925 10.6844 5.48744 11.0126C5.81563 11.3408 6 11.7859 6 12.25C6 12.7141 5.81563 13.1592 5.48744 13.4874C5.15925 13.8156 4.71413 14 4.25 14C3.78587 14 3.34075 13.8156 3.01256 13.4874C2.68437 13.1592 2.5 12.7141 2.5 12.25C2.5 11.7859 2.68437 11.3408 3.01256 11.0126C3.34075 10.6844 3.78587 10.5 4.25 10.5ZM13.5 12.25C13.5 11.7859 13.6844 11.3408 14.0126 11.0126C14.3408 10.6844 14.7859 10.5 15.25 10.5C15.7141 10.5 16.1592 10.6844 16.4874 11.0126C16.8156 11.3408 17 11.7859 17 12.25C17 12.7141 16.8156 13.1592 16.4874 13.4874C16.1592 13.8156 15.7141 14 15.25 14C14.7859 14 14.3408 13.8156 14.0126 13.4874C13.6844 13.1592 13.5 12.7141 13.5 12.25Z" fill="#FF4C30"/>
</svg>
