<svg width="64" height="64" viewBox="0 0 64 64" fill="none" xmlns="http://www.w3.org/2000/svg">
<path d="M61 32V37L54.83 40.41L44.21 42.61L22.51 43.86L15.69 44H7.18999C6.8292 44 6.47512 43.9024 6.16528 43.7176C5.85544 43.5327 5.60137 43.2675 5.42999 42.95L3.83999 40L3.22999 38.88C2.75027 38.0002 2.61823 36.9725 2.85999 36C2.94608 35.6481 3.08427 35.311 3.26999 35C3.73334 34.1636 4.48779 33.5266 5.38999 33.21L20.16 27.89L31.53 21.27C31.837 21.0926 32.1854 20.9994 32.54 21H41.78C41.9247 21.0012 42.0689 21.018 42.21 21.05L58.69 24.71C58.8417 24.7436 58.9835 24.8124 59.1038 24.9107C59.2242 25.009 59.3198 25.1342 59.383 25.2762C59.4462 25.4181 59.4752 25.573 59.4678 25.7282C59.4603 25.8834 59.4165 26.0347 59.34 26.17L57.58 29.32C57.4479 29.4625 57.3601 29.6403 57.3274 29.8319C57.2948 30.0234 57.3186 30.2203 57.396 30.3985C57.4735 30.5767 57.6012 30.7285 57.7635 30.8353C57.9258 30.9422 58.1157 30.9994 58.31 31H60C60.2652 31 60.5196 31.1054 60.7071 31.2929C60.8946 31.4804 61 31.7348 61 32Z" fill="#ff4c30" id="id_101"></path>
<path d="M61 35V37L54.83 40.41L44.21 42.61L22.51 43.86L15.69 44H7.18999C6.8292 44 6.47512 43.9024 6.16528 43.7176C5.85544 43.5327 5.60137 43.2675 5.42999 42.95L3.83999 40L3.22999 38.88C2.75027 38.0002 2.61823 36.9725 2.85999 36C2.94608 35.6481 3.08427 35.311 3.26999 35H61Z" fill="#E64820" id="id_102"></path>
<path d="M2.85999 36H7.99999L5.99999 40H3.83999L3.22999 38.88C2.75027 38.0002 2.61823 36.9725 2.85999 36V36Z" fill="#FF7256" id="id_103"></path>
<path d="M45.98 27L45.89 27.03L38 29L39.2 27L41 24L45.86 25.08C46.0725 25.1263 46.2642 25.2407 46.4059 25.4058C46.5475 25.5708 46.6315 25.7776 46.6451 25.9947C46.6587 26.2118 46.6011 26.4274 46.481 26.6088C46.361 26.7902 46.1851 26.9276 45.98 27Z" fill="#E6E7E8" id="id_104"></path>
<path d="M41 24L39.2 27L38 29L27.14 29.72C26.9178 29.7324 26.6979 29.6704 26.515 29.5437C26.3321 29.4171 26.1966 29.233 26.1301 29.0207C26.0635 28.8084 26.0696 28.58 26.1475 28.3716C26.2254 28.1631 26.3705 27.9866 26.56 27.87L28.02 27L32.75 24.17C32.9125 24.0602 33.1039 24.001 33.3 24H41Z" fill="#E6E7E8" id="id_105"></path>
<path d="M19 33V37C18.7374 36.9986 18.4772 37.0501 18.2349 37.1515C17.9927 37.2529 17.7733 37.402 17.59 37.59L14.76 34.76C15.3147 34.2002 15.9753 33.7563 16.7032 33.4541C17.4311 33.152 18.2119 32.9976 19 33V33Z" fill="#57565C" id="id_106"></path>
<path d="M17.59 40.41L14.76 43.24C14.2002 42.6852 13.7563 42.0247 13.4541 41.2968C13.152 40.5689 12.9976 39.7881 13 39H17C16.9986 39.2626 17.0501 39.5228 17.1515 39.765C17.2529 40.0073 17.402 40.2266 17.59 40.41V40.41Z" fill="#57565C" id="id_107"></path>
<path d="M14.76 43.24L17.59 40.41C17.7733 40.598 17.9927 40.7471 18.2349 40.8485C18.4772 40.9499 18.7374 41.0014 19 41V45C17.8215 45.0047 16.6687 44.6564 15.69 44C15.3537 43.7806 15.0419 43.5258 14.76 43.24V43.24Z" fill="#57565C" id="id_108"></path>
<path d="M20.41 40.41L23.24 43.24C23.0158 43.4682 22.7715 43.6757 22.51 43.86C21.4915 44.6046 20.2616 45.004 19 45V41C19.2626 41.0014 19.5228 40.9499 19.765 40.8485C20.0073 40.7471 20.2266 40.598 20.41 40.41V40.41Z" fill="#57565C" id="id_109"></path>
<path d="M25 39H21C21.0014 38.7374 20.9499 38.4772 20.8485 38.2349C20.7471 37.9927 20.598 37.7733 20.41 37.59L23.24 34.76C23.7998 35.3148 24.2437 35.9753 24.5459 36.7032C24.848 37.4311 25.0024 38.2119 25 39Z" fill="#57565C" id="id_110"></path>
<path d="M21 39H25C25.0024 39.7881 24.848 40.5689 24.5459 41.2968C24.2437 42.0247 23.7998 42.6852 23.24 43.24L20.41 40.41C20.598 40.2266 20.7471 40.0073 20.8485 39.765C20.9499 39.5228 21.0014 39.2626 21 39V39Z" fill="#57565C" id="id_111"></path>
<path d="M14.76 34.76L17.59 37.59C17.402 37.7733 17.2529 37.9927 17.1515 38.2349C17.0501 38.4772 16.9986 38.7374 17 39H13C12.9976 38.2119 13.152 37.4311 13.4541 36.7032C13.7563 35.9753 14.2002 35.3148 14.76 34.76V34.76Z" fill="#57565C" id="id_112"></path>
<path d="M23.24 34.76L20.41 37.59C20.2266 37.402 20.0073 37.2529 19.765 37.1515C19.5228 37.0501 19.2626 36.9986 19 37V33C19.7881 32.9976 20.5689 33.152 21.2968 33.4541C22.0247 33.7563 22.6852 34.2002 23.24 34.76V34.76Z" fill="#57565C" id="id_113"></path>
<path d="M49 41V45C48.2119 45.0024 47.4311 44.848 46.7032 44.5459C45.9753 44.2437 45.3147 43.7998 44.76 43.24L47.59 40.41C47.7733 40.598 47.9927 40.7471 48.2349 40.8485C48.4772 40.9499 48.7374 41.0014 49 41Z" fill="#57565C" id="id_114"></path>
<path d="M55 39H51C51.0014 38.7374 50.9499 38.4772 50.8485 38.2349C50.7471 37.9927 50.598 37.7733 50.41 37.59L53.19 34.81L53.24 34.76C53.7998 35.3148 54.2437 35.9753 54.5459 36.7032C54.848 37.4311 55.0024 38.2119 55 39V39Z" fill="#57565C" id="id_115"></path>
<path d="M53.24 34.76L53.19 34.81L50.41 37.59C50.2266 37.402 50.0073 37.2529 49.765 37.1515C49.5228 37.0501 49.2626 36.9986 49 37V33C49.7881 32.9976 50.5689 33.152 51.2968 33.4541C52.0247 33.7563 52.6852 34.2002 53.24 34.76V34.76Z" fill="#57565C" id="id_116"></path>
<path d="M49 33V37C48.7374 36.9986 48.4772 37.0501 48.2349 37.1515C47.9927 37.2529 47.7733 37.402 47.59 37.59L44.76 34.76C45.3147 34.2002 45.9753 33.7563 46.7032 33.4541C47.4311 33.152 48.2119 32.9976 49 33V33Z" fill="#57565C" id="id_117"></path>
<path d="M47.59 40.41L44.76 43.24C44.5634 43.042 44.3797 42.8315 44.21 42.61C43.4216 41.572 42.9964 40.3035 43 39H47C46.9986 39.2626 47.0501 39.5228 47.1515 39.765C47.2529 40.0073 47.402 40.2266 47.59 40.41V40.41Z" fill="#57565C" id="id_118"></path>
<path d="M53.19 43.19L53.24 43.24C52.6852 43.7998 52.0247 44.2437 51.2968 44.5459C50.5689 44.848 49.7881 45.0024 49 45V41C49.2626 41.0014 49.5228 40.9499 49.765 40.8485C50.0073 40.7471 50.2266 40.598 50.41 40.41L53.19 43.19Z" fill="#57565C" id="id_119"></path>
<path d="M44.76 34.76L47.59 37.59C47.402 37.7733 47.2529 37.9927 47.1515 38.2349C47.0501 38.4772 46.9986 38.7374 47 39H43C42.9976 38.2119 43.152 37.4311 43.4541 36.7032C43.7563 35.9753 44.2002 35.3148 44.76 34.76V34.76Z" fill="#57565C" id="id_120"></path>
<path d="M51 39H55C54.9975 40.5905 54.3646 42.1152 53.24 43.24L53.19 43.19L50.41 40.41C50.598 40.2266 50.7471 40.0073 50.8485 39.765C50.9499 39.5228 51.0014 39.2626 51 39V39Z" fill="#57565C" id="id_121"></path>
<path d="M50.41 37.59C50.7312 37.9158 50.9296 38.3427 50.9716 38.7983C51.0136 39.2538 50.8965 39.7099 50.6403 40.0889C50.3841 40.4679 50.0045 40.7465 49.5662 40.8773C49.1278 41.0081 48.6577 40.9831 48.2356 40.8065C47.8136 40.6299 47.4658 40.3127 47.2512 39.9086C47.0366 39.5046 46.9686 39.0387 47.0587 38.5902C47.1487 38.1417 47.3913 37.7382 47.7453 37.4483C48.0992 37.1584 48.5425 37 49 37C49.2626 36.9986 49.5228 37.0501 49.765 37.1515C50.0073 37.2529 50.2266 37.402 50.41 37.59V37.59Z" fill="#57565C" id="id_122"></path>
<path d="M20.41 37.59C20.7312 37.9158 20.9296 38.3427 20.9716 38.7983C21.0136 39.2538 20.8965 39.7099 20.6403 40.0889C20.3841 40.4679 20.0045 40.7465 19.5662 40.8773C19.1278 41.0081 18.6577 40.9831 18.2356 40.8065C17.8136 40.6299 17.4658 40.3127 17.2512 39.9086C17.0366 39.5046 16.9686 39.0387 17.0587 38.5902C17.1487 38.1417 17.3913 37.7382 17.7453 37.4483C18.0992 37.1584 18.5425 37 19 37C19.2626 36.9986 19.5228 37.0501 19.7651 37.1515C20.0073 37.2529 20.2267 37.402 20.41 37.59V37.59Z" fill="#57565C" id="id_123"></path>
<path d="M45.98 27L45.89 27.03L38 29L27.14 29.72C26.9178 29.7324 26.6979 29.6704 26.515 29.5437C26.3321 29.4171 26.1966 29.233 26.1301 29.0207C26.0635 28.8084 26.0696 28.58 26.1475 28.3716C26.2254 28.1631 26.3705 27.9866 26.56 27.87L28.02 27H45.98Z" fill="#D8D7DA" id="id_124"></path>
<path d="M38.9061 31.8296L34.9213 32.1773L35.0951 34.1698L39.08 33.822L38.9061 31.8296Z" fill="#E64820" id="id_125"></path>
<path d="M20 41H18V45H20V41Z" fill="#787680" id="id_126"></path>
<path d="M20 33H18V37H20V33Z" fill="#787680" id="id_127"></path>
<path d="M21.1175 39.7031L19.7033 41.1173L22.5331 43.9472L23.9474 42.533L21.1175 39.7031Z" fill="#787680" id="id_128"></path>
<path d="M15.4672 34.0531L14.053 35.4673L16.8828 38.2972L18.2971 36.883L15.4672 34.0531Z" fill="#787680" id="id_129"></path>
<path d="M25 38H21V40H25V38Z" fill="#787680" id="id_130"></path>
<path d="M17 38H13V40H17V38Z" fill="#787680" id="id_131"></path>
<path d="M22.533 34.053L19.7032 36.8828L21.1174 38.297L23.9472 35.4672L22.533 34.053Z" fill="#787680" id="id_132"></path>
<path d="M16.883 39.7033L14.0532 42.5331L15.4674 43.9473L18.2972 41.1175L16.883 39.7033Z" fill="#787680" id="id_133"></path>
<path d="M19 42C18.4067 42 17.8266 41.8241 17.3333 41.4944C16.8399 41.1648 16.4554 40.6962 16.2284 40.148C16.0013 39.5999 15.9419 38.9967 16.0576 38.4147C16.1734 37.8328 16.4591 37.2982 16.8787 36.8787C17.2982 36.4591 17.8328 36.1734 18.4147 36.0576C18.9967 35.9419 19.5999 36.0013 20.1481 36.2284C20.6962 36.4554 21.1648 36.8399 21.4944 37.3333C21.8241 37.8266 22 38.4067 22 39C22 39.7957 21.6839 40.5587 21.1213 41.1213C20.5587 41.6839 19.7957 42 19 42ZM19 38C18.8022 38 18.6089 38.0586 18.4444 38.1685C18.28 38.2784 18.1518 38.4346 18.0761 38.6173C18.0004 38.8 17.9806 39.0011 18.0192 39.1951C18.0578 39.3891 18.153 39.5673 18.2929 39.7071C18.4327 39.847 18.6109 39.9422 18.8049 39.9808C18.9989 40.0194 19.2 39.9996 19.3827 39.9239C19.5654 39.8482 19.7216 39.72 19.8315 39.5556C19.9414 39.3911 20 39.1978 20 39C20 38.7348 19.8946 38.4804 19.7071 38.2929C19.5196 38.1054 19.2652 38 19 38Z" fill="#3E3D42" id="id_134"></path>
<path d="M50 41H48V45H50V41Z" fill="#787680" id="id_135"></path>
<path d="M50 33H48V37H50V33Z" fill="#787680" id="id_136"></path>
<path d="M51.1176 39.7031L49.7033 41.1172L52.4834 43.8978L53.8977 42.4837L51.1176 39.7031Z" fill="#787680" id="id_137"></path>
<path d="M45.4674 34.0529L44.0532 35.4671L46.8831 38.297L48.2973 36.8827L45.4674 34.0529Z" fill="#787680" id="id_138"></path>
<path d="M55 38H51V40H55V38Z" fill="#787680" id="id_139"></path>
<path d="M47 38H43V40H47V38Z" fill="#787680" id="id_140"></path>
<path d="M52.4835 34.1029L49.7031 36.8832L51.1173 38.2974L53.8977 35.5171L52.4835 34.1029Z" fill="#787680" id="id_141"></path>
<path d="M46.8822 39.7031L44.0524 42.5329L45.4666 43.9471L48.2964 41.1173L46.8822 39.7031Z" fill="#787680" id="id_142"></path>
<path d="M49 42C48.4067 42 47.8266 41.8241 47.3333 41.4944C46.8399 41.1648 46.4554 40.6962 46.2284 40.148C46.0013 39.5999 45.9419 38.9967 46.0576 38.4147C46.1734 37.8328 46.4591 37.2982 46.8787 36.8787C47.2982 36.4591 47.8328 36.1734 48.4147 36.0576C48.9967 35.9419 49.5999 36.0013 50.148 36.2284C50.6962 36.4554 51.1648 36.8399 51.4944 37.3333C51.8241 37.8266 52 38.4067 52 39C52 39.7957 51.6839 40.5587 51.1213 41.1213C50.5587 41.6839 49.7957 42 49 42ZM49 38C48.8022 38 48.6089 38.0586 48.4444 38.1685C48.28 38.2784 48.1518 38.4346 48.0761 38.6173C48.0004 38.8 47.9806 39.0011 48.0192 39.1951C48.0578 39.3891 48.153 39.5673 48.2929 39.7071C48.4327 39.847 48.6109 39.9422 48.8049 39.9808C48.9989 40.0194 49.2 39.9996 49.3827 39.9239C49.5654 39.8482 49.7216 39.72 49.8315 39.5556C49.9414 39.3911 50 39.1978 50 39C50 38.7348 49.8946 38.4804 49.7071 38.2929C49.5196 38.1054 49.2652 38 49 38Z" fill="#3E3D42" id="id_143"></path>
<path d="M19 46C17.6155 46 16.2622 45.5895 15.111 44.8203C13.9599 44.0511 13.0627 42.9579 12.5328 41.6788C12.003 40.3997 11.8644 38.9922 12.1345 37.6344C12.4046 36.2765 13.0713 35.0292 14.0503 34.0503C15.0292 33.0713 16.2765 32.4046 17.6344 32.1345C18.9922 31.8644 20.3997 32.003 21.6788 32.5328C22.9579 33.0627 24.0511 33.9599 24.8203 35.111C25.5895 36.2622 26 37.6155 26 39C25.9979 40.8559 25.2597 42.6351 23.9474 43.9474C22.6351 45.2597 20.8559 45.9979 19 46V46ZM19 34C18.0111 34 17.0444 34.2932 16.2222 34.8427C15.3999 35.3921 14.759 36.173 14.3806 37.0866C14.0022 38.0002 13.9031 39.0056 14.0961 39.9755C14.289 40.9454 14.7652 41.8363 15.4645 42.5355C16.1637 43.2348 17.0546 43.711 18.0246 43.9039C18.9945 44.0969 19.9998 43.9978 20.9134 43.6194C21.8271 43.241 22.6079 42.6001 23.1574 41.7779C23.7068 40.9556 24 39.9889 24 39C23.9984 37.6744 23.4711 36.4036 22.5338 35.4662C21.5964 34.5289 20.3256 34.0016 19 34V34Z" fill="#3E3D42" id="id_144"></path>
<path d="M49 46C47.6155 46 46.2622 45.5895 45.111 44.8203C43.9599 44.0511 43.0627 42.9579 42.5328 41.6788C42.003 40.3997 41.8644 38.9922 42.1345 37.6344C42.4046 36.2765 43.0713 35.0292 44.0503 34.0503C45.0292 33.0713 46.2765 32.4046 47.6344 32.1345C48.9922 31.8644 50.3997 32.003 51.6788 32.5328C52.9579 33.0627 54.0511 33.9599 54.8203 35.111C55.5895 36.2622 56 37.6155 56 39C55.9979 40.8559 55.2597 42.6351 53.9474 43.9474C52.6351 45.2597 50.8559 45.9979 49 46V46ZM49 34C48.0111 34 47.0444 34.2932 46.2222 34.8427C45.3999 35.3921 44.759 36.173 44.3806 37.0866C44.0022 38.0002 43.9032 39.0056 44.0961 39.9755C44.289 40.9454 44.7652 41.8363 45.4645 42.5355C46.1637 43.2348 47.0546 43.711 48.0246 43.9039C48.9945 44.0969 49.9998 43.9978 50.9134 43.6194C51.8271 43.241 52.6079 42.6001 53.1574 41.7779C53.7068 40.9556 54 39.9889 54 39C53.9984 37.6744 53.4711 36.4036 52.5338 35.4662C51.5964 34.5289 50.3256 34.0016 49 34V34Z" fill="#3E3D42" id="id_145"></path>
</svg>